<svg width="25" height="21" viewBox="0 0 25 21" fill="none" xmlns="http://www.w3.org/2000/svg">
<path d="M12.5 11.0294C14.4581 11.0294 16.2323 11.6859 17.5339 12.6039C18.7706 13.4774 19.8182 14.7755 19.8182 16.1721C19.8182 16.9387 19.4951 17.574 18.986 18.0462C18.5072 18.492 17.882 18.7811 17.238 18.978C15.951 19.3729 14.2564 19.5 12.5 19.5C10.7436 19.5 9.04895 19.3729 7.762 18.978C7.118 18.7811 6.49282 18.492 6.01295 18.0462C5.50591 17.5751 5.18182 16.9398 5.18182 16.1732C5.18182 14.7766 6.22936 13.4785 7.46614 12.6049C8.76773 11.6859 10.5419 11.0294 12.5 11.0294ZM19.8182 12.0882C20.9096 12.0882 21.9007 12.4535 22.6336 12.9702C23.3027 13.4435 24 14.2302 24 15.1895C24 15.7369 23.7648 16.1912 23.4145 16.5162C23.0946 16.8138 22.6995 16.9885 22.3388 17.0986C21.8474 17.2489 21.2672 17.3262 20.665 17.3601C20.7925 16.9948 20.8636 16.5978 20.8636 16.1721C20.8636 14.5468 19.861 13.1661 18.7393 12.2079C19.0936 12.1286 19.4553 12.0885 19.8182 12.0882ZM5.18182 12.0882C5.55609 12.0896 5.91573 12.1295 6.26073 12.2079C5.14 13.1661 4.13636 14.5468 4.13636 16.1721C4.13636 16.5978 4.20745 16.9948 4.335 17.3601C3.73282 17.3262 3.15364 17.2489 2.66123 17.0986C2.30055 16.9885 1.90536 16.8138 1.58441 16.5162C1.40044 16.3493 1.2533 16.145 1.1526 15.9165C1.05189 15.6881 0.999898 15.4407 1 15.1906C1 14.2324 1.69627 13.4446 2.36641 12.9713C3.19531 12.3958 4.17684 12.0879 5.18182 12.0882ZM19.2955 5.73529C19.9886 5.73529 20.6534 6.01418 21.1436 6.5106C21.6337 7.00702 21.9091 7.68031 21.9091 8.38235C21.9091 9.0844 21.6337 9.75769 21.1436 10.2541C20.6534 10.7505 19.9886 11.0294 19.2955 11.0294C18.6023 11.0294 17.9375 10.7505 17.4473 10.2541C16.9572 9.75769 16.6818 9.0844 16.6818 8.38235C16.6818 7.68031 16.9572 7.00702 17.4473 6.5106C17.9375 6.01418 18.6023 5.73529 19.2955 5.73529ZM5.70455 5.73529C6.39772 5.73529 7.06251 6.01418 7.55267 6.5106C8.04282 7.00702 8.31818 7.68031 8.31818 8.38235C8.31818 9.0844 8.04282 9.75769 7.55267 10.2541C7.06251 10.7505 6.39772 11.0294 5.70455 11.0294C5.01137 11.0294 4.34658 10.7505 3.85643 10.2541C3.36627 9.75769 3.09091 9.0844 3.09091 8.38235C3.09091 7.68031 3.36627 7.00702 3.85643 6.5106C4.34658 6.01418 5.01137 5.73529 5.70455 5.73529ZM12.5 1.5C13.6091 1.5 14.6727 1.94622 15.457 2.74049C16.2412 3.53476 16.6818 4.61202 16.6818 5.73529C16.6818 6.85856 16.2412 7.93583 15.457 8.7301C14.6727 9.52437 13.6091 9.97059 12.5 9.97059C11.3909 9.97059 10.3273 9.52437 9.54301 8.7301C8.75876 7.93583 8.31818 6.85856 8.31818 5.73529C8.31818 4.61202 8.75876 3.53476 9.54301 2.74049C10.3273 1.94622 11.3909 1.5 12.5 1.5Z" fill="#006DFF"/>
</svg>
