<svg width="26" height="21" viewBox="0 0 26 21" fill="none" xmlns="http://www.w3.org/2000/svg">
<path d="M10.2727 1.5H3V18.6H3.90909C6.58545 18.6 8.58182 18.8205 9.89636 19.0374C10.5536 19.1454 11.0418 19.2534 11.3591 19.3326C11.503 19.3684 11.646 19.4075 11.7882 19.4496L11.8036 19.4541H11.8055L11.9436 19.5H14.0564L14.1945 19.455L14.1964 19.4541L14.2118 19.4487L14.2918 19.4253C14.3658 19.4031 14.4821 19.3722 14.6409 19.3326C14.9591 19.2543 15.4464 19.1463 16.1045 19.0374C17.4182 18.8214 19.4127 18.6 22.0909 18.6H23V1.5H15.7273C15.2114 1.49997 14.7014 1.60862 14.2312 1.81872C13.7609 2.02883 13.3413 2.33558 13 2.7186C12.6587 2.33558 12.2391 2.02883 11.7688 1.81872C11.2986 1.60862 10.7886 1.49997 10.2727 1.5ZM4.81818 16.809V3.3H10.2727C10.7549 3.3 11.2174 3.48964 11.5584 3.82721C11.8994 4.16477 12.0909 4.62261 12.0909 5.1V17.6622L11.8 17.5866C11.4364 17.4966 10.9009 17.3796 10.1945 17.2626C8.94091 17.0556 7.14909 16.8522 4.81818 16.809ZM19.3636 8.7H15.7273V6.9H19.3636V8.7ZM19.3636 11.4H15.7273V9.6H19.3636V11.4Z" fill="#006DFF"/>
</svg>
