<svg width="26" height="21" viewBox="0 0 26 21" fill="none" xmlns="http://www.w3.org/2000/svg">
<path d="M19.4676 2.07572L19.6384 1.90497C19.7669 1.77652 19.9194 1.67465 20.0873 1.60517C20.2552 1.53568 20.4351 1.49995 20.6168 1.5C20.7985 1.50005 20.9784 1.53589 21.1463 1.60548C21.3141 1.67506 21.4666 1.77702 21.595 1.90554C21.7235 2.03406 21.8254 2.18662 21.8948 2.35451C21.9643 2.5224 22.0001 2.70233 22 2.88403C21.9999 3.06573 21.9641 3.24564 21.8945 3.41349C21.8249 3.58134 21.723 3.73384 21.5945 3.86229L21.4237 4.03189C21.7158 4.35948 21.8715 4.78639 21.859 5.22511C21.8464 5.66383 21.6665 6.08112 21.3561 6.39145L9.56216 18.1869C9.48843 18.2603 9.39613 18.3122 9.29515 18.337L4.71141 19.483C4.61549 19.5069 4.51502 19.5056 4.41977 19.4791C4.32451 19.4527 4.23772 19.4021 4.16782 19.3322C4.09792 19.2623 4.04729 19.1755 4.02086 19.0802C3.99443 18.985 3.99309 18.8845 4.01698 18.7886L5.16291 14.2047C5.18799 14.1041 5.23987 14.0122 5.31303 13.9388L16.3621 2.88936C16.2516 2.81158 16.1172 2.77536 15.9826 2.78711C15.848 2.79885 15.7218 2.8578 15.6264 2.95353L11.854 6.72722C11.8008 6.78049 11.7375 6.82275 11.6679 6.85158C11.5983 6.88041 11.5237 6.89525 11.4484 6.89525C11.373 6.89525 11.2984 6.88041 11.2288 6.85158C11.1592 6.82275 11.096 6.78049 11.0427 6.72722C10.9894 6.67394 10.9472 6.6107 10.9183 6.54109C10.8895 6.47149 10.8747 6.39688 10.8747 6.32154C10.8747 6.2462 10.8895 6.1716 10.9183 6.10199C10.9472 6.03239 10.9894 5.96914 11.0427 5.91587L14.8174 2.14333C15.1279 1.83279 15.5455 1.65288 15.9845 1.64052C16.4235 1.62816 16.8505 1.78429 17.178 2.07686C17.4929 1.79546 17.9003 1.6398 18.3226 1.63959C18.7449 1.63938 19.1525 1.79463 19.4676 2.07572Z" fill="#006DFF"/>
</svg>
