<svg width="26" height="21" viewBox="0 0 26 21" fill="none" xmlns="http://www.w3.org/2000/svg">
<path d="M21.0752 8.19126V2.44737C21.0752 2.19611 20.9753 1.95514 20.7974 1.77748C20.6194 1.59981 20.3782 1.5 20.1266 1.5H19.178C17.3006 3.37484 13.7737 4.42453 11.589 4.92284V15.1298C13.7737 15.6281 17.3006 16.6778 19.178 18.5526H20.1266C20.3782 18.5526 20.6194 18.4528 20.7974 18.2752C20.9753 18.0975 21.0752 17.8565 21.0752 17.6053V11.8614C21.4829 11.7567 21.8441 11.5196 22.1021 11.1874C22.36 10.8552 22.5 10.4467 22.5 10.0263C22.5 9.60593 22.36 9.19748 22.1021 8.86527C21.8441 8.53306 21.4829 8.29594 21.0752 8.19126ZM5.89724 5.28947C5.39406 5.28947 4.91149 5.4891 4.55569 5.84443C4.19989 6.19976 4 6.68169 4 7.18421V12.8684C4 13.3709 4.19989 13.8529 4.55569 14.2082C4.91149 14.5635 5.39406 14.7632 5.89724 14.7632H6.84587L7.79449 19.5H9.69173V5.28947H5.89724Z" fill="#006DFF"/>
</svg>
