<svg width="26" height="21" viewBox="0 0 26 21" fill="none" xmlns="http://www.w3.org/2000/svg">
<path fill-rule="evenodd" clip-rule="evenodd" d="M5.375 1.5C4.339 1.5 3.5 2.34 3.5 3.375V16.5C3.5 17.2956 3.81607 18.0587 4.37868 18.6213C4.94129 19.1839 5.70435 19.5 6.5 19.5H21.5C20.7044 19.5 19.9413 19.1839 19.3787 18.6213C18.8161 18.0587 18.5 17.2956 18.5 16.5V3.375C18.5 2.339 17.66 1.5 16.625 1.5H5.375ZM13.25 8.25C13.0511 8.25 12.8603 8.32902 12.7197 8.46967C12.579 8.61032 12.5 8.80109 12.5 9C12.5 9.19891 12.579 9.38968 12.7197 9.53033C12.8603 9.67098 13.0511 9.75 13.25 9.75H14.75C14.9489 9.75 15.1397 9.67098 15.2803 9.53033C15.421 9.38968 15.5 9.19891 15.5 9C15.5 8.80109 15.421 8.61032 15.2803 8.46967C15.1397 8.32902 14.9489 8.25 14.75 8.25H13.25ZM12.5 6C12.5 5.80109 12.579 5.61032 12.7197 5.46967C12.8603 5.32902 13.0511 5.25 13.25 5.25H14.75C14.9489 5.25 15.1397 5.32902 15.2803 5.46967C15.421 5.61032 15.5 5.80109 15.5 6C15.5 6.19891 15.421 6.38968 15.2803 6.53033C15.1397 6.67098 14.9489 6.75 14.75 6.75H13.25C13.0511 6.75 12.8603 6.67098 12.7197 6.53033C12.579 6.38968 12.5 6.19891 12.5 6ZM7.25 11.25C7.05109 11.25 6.86032 11.329 6.71967 11.4697C6.57902 11.6103 6.5 11.8011 6.5 12C6.5 12.1989 6.57902 12.3897 6.71967 12.5303C6.86032 12.671 7.05109 12.75 7.25 12.75H14.75C14.9489 12.75 15.1397 12.671 15.2803 12.5303C15.421 12.3897 15.5 12.1989 15.5 12C15.5 11.8011 15.421 11.6103 15.2803 11.4697C15.1397 11.329 14.9489 11.25 14.75 11.25H7.25ZM6.5 15C6.5 14.8011 6.57902 14.6103 6.71967 14.4697C6.86032 14.329 7.05109 14.25 7.25 14.25H14.75C14.9489 14.25 15.1397 14.329 15.2803 14.4697C15.421 14.6103 15.5 14.8011 15.5 15C15.5 15.1989 15.421 15.3897 15.2803 15.5303C15.1397 15.671 14.9489 15.75 14.75 15.75H7.25C7.05109 15.75 6.86032 15.671 6.71967 15.5303C6.57902 15.3897 6.5 15.1989 6.5 15ZM7.25 5.25C7.05109 5.25 6.86032 5.32902 6.71967 5.46967C6.57902 5.61032 6.5 5.80109 6.5 6V9C6.5 9.414 6.836 9.75 7.25 9.75H10.25C10.4489 9.75 10.6397 9.67098 10.7803 9.53033C10.921 9.38968 11 9.19891 11 9V6C11 5.80109 10.921 5.61032 10.7803 5.46967C10.6397 5.32902 10.4489 5.25 10.25 5.25H7.25Z" fill="#006DFF"/>
<path d="M20 5.25H21.875C22.496 5.25 23 5.754 23 6.375V16.5C23 16.8978 22.842 17.2794 22.5607 17.5607C22.2794 17.842 21.8978 18 21.5 18C21.1022 18 20.7206 17.842 20.4393 17.5607C20.158 17.2794 20 16.8978 20 16.5V5.25Z" fill="#006DFF"/>
</svg>
