<svg width="34" height="34" viewBox="0 0 34 34" fill="none" xmlns="http://www.w3.org/2000/svg">
<path d="M17 25C14.8783 25 12.8434 24.1571 11.3431 22.6569C9.84285 21.1566 9 19.1217 9 17C9 14.8783 9.84285 12.8434 11.3431 11.3431C12.8434 9.84285 14.8783 9 17 9C19.1217 9 21.1566 9.84285 22.6569 11.3431C24.1571 12.8434 25 14.8783 25 17C25 19.1217 24.1571 21.1566 22.6569 22.6569C21.1566 24.1571 19.1217 25 17 25ZM17 1C17.4243 1 17.8313 1.16857 18.1314 1.46863C18.4314 1.76869 18.6 2.17565 18.6 2.6V5.8C18.6 6.22435 18.4314 6.63131 18.1314 6.93137C17.8313 7.23143 17.4243 7.4 17 7.4C16.5757 7.4 16.1687 7.23143 15.8686 6.93137C15.5686 6.63131 15.4 6.22435 15.4 5.8V2.6C15.4 2.17565 15.5686 1.76869 15.8686 1.46863C16.1687 1.16857 16.5757 1 17 1ZM17 26.6C17.4243 26.6 17.8313 26.7686 18.1314 27.0686C18.4314 27.3687 18.6 27.7757 18.6 28.2V31.4C18.6 31.8243 18.4314 32.2313 18.1314 32.5314C17.8313 32.8314 17.4243 33 17 33C16.5757 33 16.1687 32.8314 15.8686 32.5314C15.5686 32.2313 15.4 31.8243 15.4 31.4V28.2C15.4 27.7757 15.5686 27.3687 15.8686 27.0686C16.1687 26.7686 16.5757 26.6 17 26.6ZM2.6 15.4H5.8C6.22435 15.4 6.63131 15.5686 6.93137 15.8686C7.23143 16.1687 7.4 16.5757 7.4 17C7.4 17.4243 7.23143 17.8313 6.93137 18.1314C6.63131 18.4314 6.22435 18.6 5.8 18.6H2.6C2.17565 18.6 1.76869 18.4314 1.46863 18.1314C1.16857 17.8313 1 17.4243 1 17C1 16.5757 1.16857 16.1687 1.46863 15.8686C1.76869 15.5686 2.17565 15.4 2.6 15.4ZM28.2 15.4H31.4C31.8243 15.4 32.2313 15.5686 32.5314 15.8686C32.8314 16.1687 33 16.5757 33 17C33 17.4243 32.8314 17.8313 32.5314 18.1314C32.2313 18.4314 31.8243 18.6 31.4 18.6H28.2C27.7757 18.6 27.3687 18.4314 27.0686 18.1314C26.7686 17.8313 26.6 17.4243 26.6 17C26.6 16.5757 26.7686 16.1687 27.0686 15.8686C27.3687 15.5686 27.7757 15.4 28.2 15.4ZM28.3136 5.6864C28.6136 5.98644 28.7821 6.39334 28.7821 6.8176C28.7821 7.24186 28.6136 7.64876 28.3136 7.9488L26.0512 10.2112C25.9036 10.364 25.7271 10.4859 25.5318 10.5698C25.3366 10.6536 25.1267 10.6978 24.9142 10.6996C24.7018 10.7014 24.4911 10.661 24.2945 10.5805C24.0978 10.5001 23.9192 10.3813 23.769 10.231C23.6187 10.0808 23.4999 9.90216 23.4195 9.70553C23.339 9.50889 23.2986 9.29821 23.3004 9.08576C23.3022 8.87331 23.3464 8.66336 23.4302 8.46815C23.5141 8.27295 23.636 8.0964 23.7888 7.9488L26.0512 5.6864C26.3512 5.38645 26.7581 5.21794 27.1824 5.21794C27.6067 5.21794 28.0136 5.38645 28.3136 5.6864ZM10.2112 23.7888C10.5112 24.0888 10.6797 24.4957 10.6797 24.92C10.6797 25.3443 10.5112 25.7512 10.2112 26.0512L7.9488 28.3136C7.80121 28.4664 7.62465 28.5883 7.42945 28.6722C7.23424 28.756 7.02429 28.8002 6.81184 28.802C6.5994 28.8038 6.38871 28.7634 6.19207 28.6829C5.99544 28.6025 5.8168 28.4837 5.66657 28.3334C5.51634 28.1832 5.39753 28.0046 5.31709 27.8079C5.23664 27.6113 5.19615 27.4006 5.198 27.1882C5.19985 26.9757 5.24398 26.7658 5.32784 26.5706C5.41169 26.3753 5.53358 26.1988 5.6864 26.0512L7.9488 23.7888C8.24884 23.4888 8.65574 23.3203 9.08 23.3203C9.50426 23.3203 9.91116 23.4888 10.2112 23.7888ZM7.9488 5.6864L10.2112 7.9488C10.5027 8.25056 10.6639 8.65473 10.6603 9.07424C10.6566 9.49376 10.4884 9.89506 10.1917 10.1917C9.89506 10.4884 9.49376 10.6566 9.07424 10.6603C8.65473 10.6639 8.25056 10.5027 7.9488 10.2112L5.688 7.9488C5.39655 7.64704 5.23528 7.24287 5.23892 6.82336C5.24257 6.40384 5.41084 6.00254 5.70749 5.70589C6.00414 5.40924 6.40544 5.24097 6.82496 5.23732C7.24447 5.23368 7.64704 5.39495 7.9488 5.6864ZM26.0512 23.7888L28.3136 26.0512C28.6051 26.353 28.7663 26.7571 28.7627 27.1766C28.759 27.5962 28.5908 27.9975 28.2941 28.2941C27.9975 28.5908 27.5962 28.759 27.1766 28.7627C26.7571 28.7663 26.353 28.6051 26.0512 28.3136L23.7888 26.0512C23.636 25.9036 23.5141 25.7271 23.4302 25.5318C23.3464 25.3366 23.3022 25.1267 23.3004 24.9142C23.2986 24.7018 23.339 24.4911 23.4195 24.2945C23.4999 24.0978 23.6187 23.9192 23.769 23.769C23.9192 23.6187 24.0978 23.4999 24.2945 23.4195C24.4911 23.339 24.7018 23.2986 24.9142 23.3004C25.1267 23.3022 25.3366 23.3464 25.5318 23.4302C25.7271 23.5141 25.9036 23.636 26.0512 23.7888Z" fill="#006DFF" stroke="#006DFF" stroke-width="0.5"/>
</svg>
