<svg width="32" height="32" viewBox="0 0 32 32" fill="none" xmlns="http://www.w3.org/2000/svg">
<path d="M16 32C24.8368 32 32 24.8368 32 16C32 15.2592 30.8896 15.136 30.5072 15.7712C29.6916 17.1221 28.5792 18.2698 27.2544 19.1271C25.9296 19.9845 24.427 20.5292 22.8605 20.7198C21.294 20.9105 19.7047 20.7422 18.2129 20.2276C16.7211 19.7131 15.3659 18.8658 14.2501 17.7499C13.1342 16.6341 12.2869 15.2789 11.7724 13.7871C11.2578 12.2953 11.0895 10.706 11.2802 9.13947C11.4708 7.57297 12.0155 6.07041 12.8729 4.74558C13.7302 3.42075 14.8779 2.30841 16.2288 1.4928C16.864 1.1088 16.7408 0 16 0C7.1632 0 0 7.1632 0 16C0 24.8368 7.1632 32 16 32Z" fill="#006DFF"/>
</svg>
